<?xml version="1.0" encoding="UTF-8" standalone="no" ?>
<!DOCTYPE svg PUBLIC "-//W3C//DTD SVG 1.1//EN" "http://www.w3.org/Graphics/SVG/1.1/DTD/svg11.dtd">
<svg xmlns="http://www.w3.org/2000/svg" xmlns:xlink="http://www.w3.org/1999/xlink" version="1.1" width="1080" height="1080" viewBox="0 0 1080 1080" xml:space="preserve">
<desc>Created with Fabric.js 5.2.4</desc>
<defs>
</defs>
<g transform="matrix(1 0 0 1 540 540)" id="5daa2345-1b3d-4894-8266-f0cdfe1b9324"  >
<rect style="stroke: none; stroke-width: 1; stroke-dasharray: none; stroke-linecap: butt; stroke-dashoffset: 0; stroke-linejoin: miter; stroke-miterlimit: 4; fill: rgb(255,255,255); fill-rule: nonzero; opacity: 1; visibility: hidden;" vector-effect="non-scaling-stroke"  x="-540" y="-540" rx="0" ry="0" width="1080" height="1080" />
</g>
<g transform="matrix(1 0 0 1 540 540)" id="9a3265b6-3438-4005-8274-48fb61868cd2"  >
</g>
<g transform="matrix(2.67 0 0 2.67 540 540)"  >
<g style=""   >
		<g transform="matrix(1 0 0 1 -21.19 62.33)"  >
<path style="stroke: none; stroke-width: 1; stroke-dasharray: none; stroke-linecap: butt; stroke-dashoffset: 0; stroke-linejoin: miter; stroke-miterlimit: 4; fill: rgb(220,234,249); fill-rule: nonzero; opacity: 1;" vector-effect="non-scaling-stroke"  transform=" translate(-180.81, -213.33)" d="M 173.293 264.987 L 188.322 264.987 L 188.322 161.664 L 173.293 161.664 L 173.293 264.987 Z" stroke-linecap="round" />
</g>
		<g transform="matrix(1 0 0 1 -23.27 104.16)"  >
<path style="stroke: none; stroke-width: 1; stroke-dasharray: none; stroke-linecap: butt; stroke-dashoffset: 0; stroke-linejoin: miter; stroke-miterlimit: 4; fill: rgb(220,234,249); fill-rule: nonzero; opacity: 1;" vector-effect="non-scaling-stroke"  transform=" translate(-178.73, -255.16)" d="M 178.568 264.971 L 173.316 264.971 L 173.316 245.34 L 184.143 245.34 L 178.568 264.971 Z" stroke-linecap="round" />
</g>
		<g transform="matrix(1 0 0 1 137.94 62.33)"  >
<path style="stroke: none; stroke-width: 1; stroke-dasharray: none; stroke-linecap: butt; stroke-dashoffset: 0; stroke-linejoin: miter; stroke-miterlimit: 4; fill: rgb(220,234,249); fill-rule: nonzero; opacity: 1;" vector-effect="non-scaling-stroke"  transform=" translate(-339.94, -213.33)" d="M 332.425 264.987 L 347.454 264.987 L 347.454 161.664 L 332.425 161.664 L 332.425 264.987 Z" stroke-linecap="round" />
</g>
		<g transform="matrix(1 0 0 1 53.16 59.67)"  >
<path style="stroke: none; stroke-width: 1; stroke-dasharray: none; stroke-linecap: butt; stroke-dashoffset: 0; stroke-linejoin: miter; stroke-miterlimit: 4; fill: rgb(237,246,255); fill-rule: nonzero; opacity: 1;" vector-effect="non-scaling-stroke"  transform=" translate(-255.16, -210.67)" d="M 173.31 259.629 L 337.011 259.629 L 337.011 161.719 L 173.31 161.719 L 173.31 259.629 Z" stroke-linecap="round" />
</g>
		<g transform="matrix(1 0 0 1 129.6 104.16)"  >
<path style="stroke: none; stroke-width: 1; stroke-dasharray: none; stroke-linecap: butt; stroke-dashoffset: 0; stroke-linejoin: miter; stroke-miterlimit: 4; fill: rgb(255,255,255); fill-rule: nonzero; opacity: 1;" vector-effect="non-scaling-stroke"  transform=" translate(-331.6, -255.16)" d="M 331.765 264.971 L 337.017 264.971 L 337.017 245.34 L 326.19 245.34 L 331.765 264.971 Z" stroke-linecap="round" />
</g>
		<g transform="matrix(1 0 0 1 105.31 59.32)"  >
<path style="stroke: none; stroke-width: 1; stroke-dasharray: none; stroke-linecap: butt; stroke-dashoffset: 0; stroke-linejoin: miter; stroke-miterlimit: 4; fill: rgb(220,234,249); fill-rule: nonzero; opacity: 1;" vector-effect="non-scaling-stroke"  transform=" translate(-307.31, -210.32)" d="M 283.031 169.81 L 283.031 250.836 L 331.591 250.836 L 331.591 169.81 L 283.031 169.81 Z" stroke-linecap="round" />
</g>
		<g transform="matrix(1 0 0 1 105.28 19.57)"  >
<path style="stroke: none; stroke-width: 1; stroke-dasharray: none; stroke-linecap: butt; stroke-dashoffset: 0; stroke-linejoin: miter; stroke-miterlimit: 4; fill: rgb(255,255,255); fill-rule: nonzero; opacity: 1;" vector-effect="non-scaling-stroke"  transform=" translate(-307.28, -170.57)" d="M 302.515 172.635 L 312.13 172.635 C 316.332 172.635 320.291 171.1 323.119 168.515 L 291.446 168.515 C 294.354 171.181 298.314 172.635 302.515 172.635 Z" stroke-linecap="round" />
</g>
		<g transform="matrix(1 0 0 1 53.16 59.28)"  >
<path style="stroke: none; stroke-width: 1; stroke-dasharray: none; stroke-linecap: butt; stroke-dashoffset: 0; stroke-linejoin: miter; stroke-miterlimit: 4; fill: rgb(220,234,249); fill-rule: nonzero; opacity: 1;" vector-effect="non-scaling-stroke"  transform=" translate(-255.16, -210.28)" d="M 230.875 169.771 L 230.875 250.797 L 279.436 250.797 L 279.436 169.771 L 230.875 169.771 Z" stroke-linecap="round" />
</g>
		<g transform="matrix(1 0 0 1 52.6 19.57)"  >
<path style="stroke: none; stroke-width: 1; stroke-dasharray: none; stroke-linecap: butt; stroke-dashoffset: 0; stroke-linejoin: miter; stroke-miterlimit: 4; fill: rgb(255,255,255); fill-rule: nonzero; opacity: 1;" vector-effect="non-scaling-stroke"  transform=" translate(-254.6, -170.57)" d="M 249.834 172.635 L 259.449 172.635 C 263.65 172.635 267.61 171.1 270.438 168.515 L 238.764 168.515 C 241.754 171.181 245.713 172.635 249.834 172.635 Z" stroke-linecap="round" />
</g>
		<g transform="matrix(1 0 0 1 1 59.33)"  >
<path style="stroke: none; stroke-width: 1; stroke-dasharray: none; stroke-linecap: butt; stroke-dashoffset: 0; stroke-linejoin: miter; stroke-miterlimit: 4; fill: rgb(220,234,249); fill-rule: nonzero; opacity: 1;" vector-effect="non-scaling-stroke"  transform=" translate(-203, -210.33)" d="M 178.72 169.813 L 178.72 250.839 L 227.281 250.839 L 227.281 169.813 L 178.72 169.813 Z" stroke-linecap="round" />
</g>
		<g transform="matrix(1 0 0 1 0.49 19.57)"  >
<path style="stroke: none; stroke-width: 1; stroke-dasharray: none; stroke-linecap: butt; stroke-dashoffset: 0; stroke-linejoin: miter; stroke-miterlimit: 4; fill: rgb(240,240,240); fill-rule: nonzero; opacity: 1;" vector-effect="non-scaling-stroke"  transform=" translate(-202.49, -170.57)" d="M 197.718 172.635 L 207.333 172.635 C 211.535 172.635 215.494 171.1 218.322 168.515 L 186.648 168.515 C 189.557 171.181 193.516 172.635 197.718 172.635 Z" stroke-linecap="round" />
</g>
		<g transform="matrix(1 0 0 1 -95.23 -1.33)"  >
<path style="stroke: none; stroke-width: 1; stroke-dasharray: none; stroke-linecap: butt; stroke-dashoffset: 0; stroke-linejoin: miter; stroke-miterlimit: 4; fill: rgb(237,246,255); fill-rule: nonzero; opacity: 1;" vector-effect="non-scaling-stroke"  transform=" translate(-106.77, -149.67)" d="M 56.5109 265.028 L 157.026 265.028 L 157.026 34.3096 L 56.5109 34.3096 L 56.5109 265.028 Z" stroke-linecap="round" />
</g>
		<g transform="matrix(1 0 0 1 -95.18 -1.38)"  >
<path style="stroke: none; stroke-width: 1; stroke-dasharray: none; stroke-linecap: butt; stroke-dashoffset: 0; stroke-linejoin: miter; stroke-miterlimit: 4; fill: rgb(220,234,249); fill-rule: nonzero; opacity: 1;" vector-effect="non-scaling-stroke"  transform=" translate(-106.82, -149.62)" d="M 150.939 259.773 L 150.939 39.4758 L 62.7051 39.4758 L 62.7051 259.773 L 150.939 259.773 Z" stroke-linecap="round" />
</g>
		<g transform="matrix(1 0 0 1 -95.26 -82.58)"  >
<path style="stroke: none; stroke-width: 1; stroke-dasharray: none; stroke-linecap: butt; stroke-dashoffset: 0; stroke-linejoin: miter; stroke-miterlimit: 4; fill: rgb(250,250,250); fill-rule: nonzero; opacity: 1;" vector-effect="non-scaling-stroke"  transform=" translate(-106.74, -68.42)" d="M 142.208 80.4605 C 142.208 67.212 131.462 56.387 118.13 56.387 L 95.344 56.387 C 82.0928 56.387 71.2656 67.1312 71.2656 80.4605 L 142.208 80.4605 Z" stroke-linecap="round" />
</g>
		<g transform="matrix(1 0 0 1 -95.25 68.75)"  >
<path style="stroke: none; stroke-width: 1; stroke-dasharray: none; stroke-linecap: butt; stroke-dashoffset: 0; stroke-linejoin: miter; stroke-miterlimit: 4; fill: rgb(255,255,255); fill-rule: nonzero; opacity: 1;" vector-effect="non-scaling-stroke"  transform=" translate(-106.75, -219.75)" d="M 142.221 246.049 L 142.221 193.459 L 71.279 193.459 L 71.279 246.049 L 142.221 246.049 Z" stroke-linecap="round" />
</g>
		<g transform="matrix(1 0 0 1 -75.43 -9.99)"  >
<path style="stroke: none; stroke-width: 1; stroke-dasharray: none; stroke-linecap: butt; stroke-dashoffset: 0; stroke-linejoin: miter; stroke-miterlimit: 4; fill: rgb(255,255,255); fill-rule: nonzero; opacity: 1;" vector-effect="non-scaling-stroke"  transform=" translate(-126.57, -141.01)" d="M 142.208 95.3247 L 110.938 95.3247 L 110.938 186.691 L 142.208 186.691 L 142.208 95.3247 Z" stroke-linecap="round" />
</g>
		<g transform="matrix(1 0 0 1 -115.02 -9.99)"  >
<path style="stroke: none; stroke-width: 1; stroke-dasharray: none; stroke-linecap: butt; stroke-dashoffset: 0; stroke-linejoin: miter; stroke-miterlimit: 4; fill: rgb(255,255,255); fill-rule: nonzero; opacity: 1;" vector-effect="non-scaling-stroke"  transform=" translate(-86.98, -141.01)" d="M 102.616 95.3247 L 71.3464 95.3247 L 71.3464 186.691 L 102.616 186.691 L 102.616 95.3247 Z" stroke-linecap="round" />
</g>
		<g transform="matrix(1 0 0 1 -125.68 -12.46)"  >
<path style="stroke: none; stroke-width: 1; stroke-dasharray: none; stroke-linecap: butt; stroke-dashoffset: 0; stroke-linejoin: miter; stroke-miterlimit: 4; fill: rgb(220,234,249); fill-rule: nonzero; opacity: 1;" vector-effect="non-scaling-stroke"  transform=" translate(-76.32, -138.54)" d="M 82.6585 140.564 L 69.8921 140.564 C 68.7609 140.564 67.8721 139.675 67.8721 138.544 C 67.8721 137.413 68.7609 136.524 69.8921 136.524 L 82.7393 136.524 C 83.8705 136.524 84.7593 137.413 84.7593 138.544 C 84.6785 139.675 83.7897 140.564 82.6585 140.564 Z" stroke-linecap="round" />
</g>
		<g transform="matrix(1 0 0 1 -138.59 -1.35)"  >
<path style="stroke: none; stroke-width: 1; stroke-dasharray: none; stroke-linecap: butt; stroke-dashoffset: 0; stroke-linejoin: miter; stroke-miterlimit: 4; fill: rgb(255,255,255); fill-rule: nonzero; opacity: 1;" vector-effect="non-scaling-stroke"  transform=" translate(-63.41, -149.65)" d="M 64.2187 259.795 L 64.2188 39.4974 L 62.6027 39.4974 L 62.6027 259.795 L 64.2187 259.795 Z" stroke-linecap="round" />
</g>
		<g transform="matrix(1 0 0 1 76.61 -65.65)"  >
<path style="stroke: none; stroke-width: 1; stroke-dasharray: none; stroke-linecap: butt; stroke-dashoffset: 0; stroke-linejoin: miter; stroke-miterlimit: 4; fill: rgb(237,246,255); fill-rule: nonzero; opacity: 1;" vector-effect="non-scaling-stroke"  transform=" translate(-278.61, -85.35)" d="M 224.188 136.405 L 333.026 136.405 L 333.026 34.2942 L 224.188 34.2942 L 224.188 136.405 Z" stroke-linecap="round" />
</g>
		<g transform="matrix(1 0 0 1 73.87 -65.65)"  >
<path style="stroke: none; stroke-width: 1; stroke-dasharray: none; stroke-linecap: butt; stroke-dashoffset: 0; stroke-linejoin: miter; stroke-miterlimit: 4; fill: rgb(220,234,249); fill-rule: nonzero; opacity: 1;" vector-effect="non-scaling-stroke"  transform=" translate(-275.87, -85.35)" d="M 221.447 136.405 L 330.284 136.405 L 330.284 34.2942 L 221.447 34.2942 L 221.447 136.405 Z" stroke-linecap="round" />
</g>
		<g transform="matrix(1 0 0 1 72.07 -11.63)"  >
<path style="stroke: none; stroke-width: 1; stroke-dasharray: none; stroke-linecap: butt; stroke-dashoffset: 0; stroke-linejoin: miter; stroke-miterlimit: 4; fill: rgb(220,234,249); fill-rule: nonzero; opacity: 1;" vector-effect="non-scaling-stroke"  transform=" translate(-274.07, -139.37)" d="M 215.088 142.317 L 333.056 142.317 L 333.056 136.42 L 215.088 136.42 L 215.088 142.317 Z" stroke-linecap="round" />
</g>
		<g transform="matrix(1 0 0 1 65.92 -11.63)"  >
<path style="stroke: none; stroke-width: 1; stroke-dasharray: none; stroke-linecap: butt; stroke-dashoffset: 0; stroke-linejoin: miter; stroke-miterlimit: 4; fill: rgb(237,246,255); fill-rule: nonzero; opacity: 1;" vector-effect="non-scaling-stroke"  transform=" translate(-267.92, -139.37)" d="M 211.963 142.317 L 323.871 142.317 L 323.871 136.42 L 211.963 136.42 L 211.963 142.317 Z" stroke-linecap="round" />
</g>
		<g transform="matrix(1 0 0 1 73.78 -65.62)"  >
<path style="stroke: none; stroke-width: 1; stroke-dasharray: none; stroke-linecap: butt; stroke-dashoffset: 0; stroke-linejoin: miter; stroke-miterlimit: 4; fill: rgb(255,255,255); fill-rule: nonzero; opacity: 1;" vector-effect="non-scaling-stroke"  transform=" translate(-275.78, -85.38)" d="M 325.309 131.146 L 325.309 39.6182 L 226.248 39.6182 L 226.248 131.146 L 325.309 131.146 Z" stroke-linecap="round" />
</g>
		<g transform="matrix(1 0 0 1 73.86 -65.62)"  >
<path style="stroke: none; stroke-width: 1; stroke-dasharray: none; stroke-linecap: butt; stroke-dashoffset: 0; stroke-linejoin: miter; stroke-miterlimit: 4; fill: rgb(220,234,249); fill-rule: nonzero; opacity: 1;" vector-effect="non-scaling-stroke"  transform=" translate(-275.86, -85.38)" d="M 278.606 131.146 L 278.606 39.6182 L 273.112 39.6182 L 273.112 131.146 L 278.606 131.146 Z" stroke-linecap="round" />
</g>
		<g transform="matrix(1 0 0 1 25.39 -65.62)"  >
<path style="stroke: none; stroke-width: 1; stroke-dasharray: none; stroke-linecap: butt; stroke-dashoffset: 0; stroke-linejoin: miter; stroke-miterlimit: 4; fill: rgb(220,234,249); fill-rule: nonzero; opacity: 1;" vector-effect="non-scaling-stroke"  transform=" translate(-227.39, -85.38)" d="M 228.436 131.139 L 228.436 39.6115 L 226.335 39.6115 L 226.335 131.139 L 228.436 131.139 Z" stroke-linecap="round" />
</g>
		<g transform="matrix(1 0 0 1 77.64 -65.68)"  >
<path style="stroke: none; stroke-width: 1; stroke-dasharray: none; stroke-linecap: butt; stroke-dashoffset: 0; stroke-linejoin: miter; stroke-miterlimit: 4; fill: rgb(237,246,255); fill-rule: nonzero; opacity: 1;" vector-effect="non-scaling-stroke"  transform=" translate(-279.64, -85.32)" d="M 280.691 131.081 L 280.691 39.5531 L 278.591 39.5531 L 278.591 131.081 L 280.691 131.081 Z" stroke-linecap="round" />
</g>
		<g transform="matrix(1 0 0 1 36.55 -45.34)"  >
<path style="stroke: none; stroke-width: 1; stroke-dasharray: none; stroke-linecap: butt; stroke-dashoffset: 0; stroke-linejoin: miter; stroke-miterlimit: 4; fill: rgb(220,234,249); fill-rule: nonzero; opacity: 1;" vector-effect="non-scaling-stroke"  transform=" translate(-238.55, -105.66)" d="M 238.764 139.109 C 236.744 118.348 235.37 84.742 236.421 73.4323 C 236.421 73.0284 236.663 72.7053 236.986 72.4629 C 237.956 71.8166 239.249 72.4629 239.168 73.5939 C 239.006 79.168 238.764 93.1435 239.976 117.136 C 240.542 129.092 241.43 137.332 240.865 139.029 L 238.764 139.029 L 238.764 139.109 Z" stroke-linecap="round" />
</g>
		<g transform="matrix(1 0 0 1 18.34 -51.39)"  >
<path style="stroke: none; stroke-width: 1; stroke-dasharray: none; stroke-linecap: butt; stroke-dashoffset: 0; stroke-linejoin: miter; stroke-miterlimit: 4; fill: rgb(220,234,249); fill-rule: nonzero; opacity: 1;" vector-effect="non-scaling-stroke"  transform=" translate(-220.34, -99.61)" d="M 231.33 91.2856 C 225.594 84.9845 213.958 80.4606 202.081 80.4606 C 197.395 80.4606 216.221 87.8119 224.058 95.971 C 230.118 102.272 236.986 112.855 239.33 118.752 C 237.875 106.392 236.986 97.5867 231.33 91.2856 Z" stroke-linecap="round" />
</g>
		<g transform="matrix(1 0 0 1 52.68 -49.94)"  >
<path style="stroke: none; stroke-width: 1; stroke-dasharray: none; stroke-linecap: butt; stroke-dashoffset: 0; stroke-linejoin: miter; stroke-miterlimit: 4; fill: rgb(220,234,249); fill-rule: nonzero; opacity: 1;" vector-effect="non-scaling-stroke"  transform=" translate(-254.68, -101.06)" d="M 242.642 93.2244 C 247.41 86.6001 258.318 81.5915 270.114 81.026 C 274.72 80.7837 257.106 89.1044 250.48 97.5867 C 245.39 104.211 240.138 115.117 238.683 121.095 C 238.36 108.573 237.875 99.7679 242.642 93.2244 Z" stroke-linecap="round" />
</g>
		<g transform="matrix(1 0 0 1 19.85 -75.75)"  >
<path style="stroke: none; stroke-width: 1; stroke-dasharray: none; stroke-linecap: butt; stroke-dashoffset: 0; stroke-linejoin: miter; stroke-miterlimit: 4; fill: rgb(220,234,249); fill-rule: nonzero; opacity: 1;" vector-effect="non-scaling-stroke"  transform=" translate(-221.85, -75.25)" d="M 231.088 68.1814 C 226.24 62.8497 216.383 58.9721 206.363 59.0529 C 202.404 59.0529 218.403 65.2732 225.028 72.1398 C 230.199 77.4715 236.017 86.4385 237.956 91.4471 C 236.583 80.9452 235.855 73.5132 231.088 68.1814 Z" stroke-linecap="round" />
</g>
		<g transform="matrix(1 0 0 1 48.83 -68.32)"  >
<path style="stroke: none; stroke-width: 1; stroke-dasharray: none; stroke-linecap: butt; stroke-dashoffset: 0; stroke-linejoin: miter; stroke-miterlimit: 4; fill: rgb(220,234,249); fill-rule: nonzero; opacity: 1;" vector-effect="non-scaling-stroke"  transform=" translate(-250.83, -82.68)" d="M 240.623 76.0982 C 244.663 70.5241 253.874 66.2426 263.893 65.7579 C 267.852 65.5963 252.904 72.5437 247.248 79.7335 C 242.885 85.3075 238.441 94.5169 237.229 99.6063 C 236.987 89.1044 236.663 81.6723 240.623 76.0982 Z" stroke-linecap="round" />
</g>
		<g transform="matrix(1 0 0 1 37.53 -3.81)"  >
<path style="stroke: none; stroke-width: 1; stroke-dasharray: none; stroke-linecap: butt; stroke-dashoffset: 0; stroke-linejoin: miter; stroke-miterlimit: 4; fill: rgb(220,234,249); fill-rule: nonzero; opacity: 1;" vector-effect="non-scaling-stroke"  transform=" translate(-239.53, -147.19)" d="M 239.572 161.729 C 233.351 161.729 228.179 156.882 227.775 150.662 L 226.725 132.647 L 252.339 132.647 L 251.288 150.662 C 250.965 156.801 245.794 161.729 239.572 161.729 Z" stroke-linecap="round" />
</g>
		<g transform="matrix(1 0 0 1 37.57 -18.07)"  >
<path style="stroke: none; stroke-width: 1; stroke-dasharray: none; stroke-linecap: butt; stroke-dashoffset: 0; stroke-linejoin: miter; stroke-miterlimit: 4; fill: rgb(220,234,249); fill-rule: nonzero; opacity: 1;" vector-effect="non-scaling-stroke"  transform=" translate(-239.57, -132.93)" d="M 254.035 136.686 L 225.109 136.686 L 224.301 129.173 L 254.843 129.173 L 254.035 136.686 Z" stroke-linecap="round" />
</g>
		<g transform="matrix(1 0 0 1 0 141.36)"  >
<path style="stroke: none; stroke-width: 1; stroke-dasharray: none; stroke-linecap: butt; stroke-dashoffset: 0; stroke-linejoin: miter; stroke-miterlimit: 4; fill: rgb(237,246,255); fill-rule: nonzero; opacity: 1;" vector-effect="non-scaling-stroke"  transform=" translate(-202, -292.36)" d="M 202 301.485 C 288.527 301.485 358.671 297.398 358.671 292.356 C 358.671 287.315 288.527 283.228 202 283.228 C 115.473 283.228 45.3289 287.315 45.3289 292.356 C 45.3289 297.398 115.473 301.485 202 301.485 Z" stroke-linecap="round" />
</g>
		<g transform="matrix(1 0 0 1 -1.45 125.32)"  >
<path style="stroke: none; stroke-width: 1; stroke-dasharray: none; stroke-linecap: butt; stroke-dashoffset: 0; stroke-linejoin: miter; stroke-miterlimit: 4; fill: rgb(255,195,189); fill-rule: nonzero; opacity: 1;" vector-effect="non-scaling-stroke"  transform=" translate(-200.55, -276.32)" d="M 205.151 283.631 L 198.445 284.359 L 195.94 269.09 L 202.646 268.283 L 205.151 283.631 Z" stroke-linecap="round" />
</g>
		<g transform="matrix(1 0 0 1 29.17 126.29)"  >
<path style="stroke: none; stroke-width: 1; stroke-dasharray: none; stroke-linecap: butt; stroke-dashoffset: 0; stroke-linejoin: miter; stroke-miterlimit: 4; fill: rgb(255,195,189); fill-rule: nonzero; opacity: 1;" vector-effect="non-scaling-stroke"  transform=" translate(-231.17, -277.29)" d="M 235.37 285.086 L 228.664 285.086 L 226.967 269.494 L 233.673 269.494 L 235.37 285.086 Z" stroke-linecap="round" />
</g>
		<g transform="matrix(1 0 0 1 24.91 137.16)"  >
<path style="stroke: none; stroke-width: 1; stroke-dasharray: none; stroke-linecap: butt; stroke-dashoffset: 0; stroke-linejoin: miter; stroke-miterlimit: 4; fill: rgb(30,37,56); fill-rule: nonzero; opacity: 1;" vector-effect="non-scaling-stroke"  transform=" translate(-226.91, -288.16)" d="M 228.098 284.278 L 236.34 284.278 C 236.582 284.278 236.825 284.439 236.906 284.762 L 238.198 290.74 C 238.36 291.387 237.875 291.952 237.229 291.952 C 234.562 291.871 232.623 291.791 229.31 291.791 C 227.29 291.791 221.069 292.033 218.241 292.033 C 215.494 292.033 215.009 289.206 216.221 288.963 C 221.392 287.832 225.351 286.297 226.967 284.762 C 227.29 284.439 227.694 284.278 228.098 284.278 Z" stroke-linecap="round" />
</g>
		<g transform="matrix(1 0 0 1 -5.03 136.31)"  >
<path style="stroke: none; stroke-width: 1; stroke-dasharray: none; stroke-linecap: butt; stroke-dashoffset: 0; stroke-linejoin: miter; stroke-miterlimit: 4; fill: rgb(30,37,56); fill-rule: nonzero; opacity: 1;" vector-effect="non-scaling-stroke"  transform=" translate(-196.97, -287.31)" d="M 198.283 283.228 L 205.555 282.42 C 205.797 282.42 206.121 282.581 206.201 282.824 L 208.221 288.64 C 208.464 289.205 208.06 289.852 207.413 289.933 C 204.747 290.175 200.949 290.498 197.637 290.821 C 193.758 291.225 193.112 292.275 188.506 292.194 C 185.759 292.114 185.032 289.286 186.163 289.125 C 191.496 288.075 192.465 287.267 196.667 283.955 C 197.233 283.551 197.717 283.308 198.283 283.228 Z" stroke-linecap="round" />
</g>
		<g transform="matrix(1 0 0 1 -29.78 -58.36)"  >
<path style="stroke: none; stroke-width: 1; stroke-dasharray: none; stroke-linecap: butt; stroke-dashoffset: 0; stroke-linejoin: miter; stroke-miterlimit: 4; fill: rgb(255,195,189); fill-rule: nonzero; opacity: 1;" vector-effect="non-scaling-stroke"  transform=" translate(-172.22, -92.64)" d="M 204.262 87.1655 C 202 89.0236 199.738 90.6392 197.475 92.3357 C 195.213 93.9514 192.789 95.567 190.365 97.0211 C 187.941 98.4752 185.436 99.9293 182.85 101.222 C 180.265 102.514 177.518 103.726 174.528 104.696 C 173.801 104.938 173.074 105.1 172.185 105.342 C 171.215 105.584 170.488 105.665 169.68 105.746 C 168.145 105.907 166.771 105.988 165.317 106.069 C 162.489 106.23 159.661 106.23 156.914 106.15 C 151.338 106.069 145.844 105.827 140.269 105.342 L 140.188 100.252 C 145.602 99.5254 151.096 98.9599 156.51 98.3137 C 159.176 97.9905 161.923 97.6674 164.509 97.3443 C 165.802 97.1827 167.094 96.9403 168.306 96.698 C 168.872 96.6172 169.518 96.4556 169.842 96.3749 C 170.326 96.2133 170.892 96.0517 171.458 95.8094 C 173.639 94.9208 175.902 93.7898 178.164 92.4972 C 180.426 91.2047 182.608 89.8314 184.87 88.3773 C 187.052 86.9232 189.234 85.3883 191.415 83.8534 C 193.597 82.3185 195.778 80.7028 197.798 79.0872 L 204.262 87.1655 Z" stroke-linecap="round" />
</g>
		<g transform="matrix(1 0 0 1 -3.14 -66.41)"  >
<path style="stroke: none; stroke-width: 1; stroke-dasharray: none; stroke-linecap: butt; stroke-dashoffset: 0; stroke-linejoin: miter; stroke-miterlimit: 4; fill: rgb(0,122,255); fill-rule: nonzero; opacity: 1;" vector-effect="non-scaling-stroke"  transform=" translate(-198.86, -84.59)" d="M 210.807 81.4299 C 209.838 87.8118 196.425 97.5059 196.425 97.5059 L 186.81 85.5499 C 186.81 85.5499 193.758 78.1178 200.222 72.7861 C 204.586 69.3124 211.858 74.4825 210.807 81.4299 Z" stroke-linecap="round" />
</g>
		<g transform="matrix(1 0 0 1 -61.97 -48.65)"  >
<path style="stroke: none; stroke-width: 1; stroke-dasharray: none; stroke-linecap: butt; stroke-dashoffset: 0; stroke-linejoin: miter; stroke-miterlimit: 4; fill: rgb(255,195,189); fill-rule: nonzero; opacity: 1;" vector-effect="non-scaling-stroke"  transform=" translate(-140.03, -102.35)" d="M 142.127 100.818 L 138.33 98.0713 L 137.926 106.634 C 137.926 106.634 140.026 106.634 140.834 105.099 L 142.127 100.818 Z" stroke-linecap="round" />
</g>
		<g transform="matrix(1 0 0 1 -65.81 -49.82)"  >
<path style="stroke: none; stroke-width: 1; stroke-dasharray: none; stroke-linecap: butt; stroke-dashoffset: 0; stroke-linejoin: miter; stroke-miterlimit: 4; fill: rgb(255,195,189); fill-rule: nonzero; opacity: 1;" vector-effect="non-scaling-stroke"  transform=" translate(-136.19, -101.18)" d="M 134.855 95.6478 L 134.047 104.049 L 137.845 106.715 L 138.33 98.1521 L 134.855 95.6478 Z" stroke-linecap="round" />
</g>
		<g transform="matrix(1 0 0 1 -2.06 121.6)"  >
<path style="stroke: none; stroke-width: 1; stroke-dasharray: none; stroke-linecap: butt; stroke-dashoffset: 0; stroke-linejoin: miter; stroke-miterlimit: 4; fill: rgb(30,37,56); fill-rule: nonzero; opacity: 0.2;" vector-effect="non-scaling-stroke"  transform=" translate(-199.94, -272.6)" d="M 195.94 269.09 L 197.233 276.926 L 203.939 276.199 L 202.646 268.283 L 195.94 269.09 Z" stroke-linecap="round" />
</g>
		<g transform="matrix(1 0 0 1 28.76 122.49)"  >
<path style="stroke: none; stroke-width: 1; stroke-dasharray: none; stroke-linecap: butt; stroke-dashoffset: 0; stroke-linejoin: miter; stroke-miterlimit: 4; fill: rgb(30,37,56); fill-rule: nonzero; opacity: 0.2;" vector-effect="non-scaling-stroke"  transform=" translate(-230.76, -273.49)" d="M 233.673 269.494 L 226.967 269.494 L 227.856 277.492 L 234.562 277.492 L 233.673 269.494 Z" stroke-linecap="round" />
</g>
		<g transform="matrix(1 0 0 1 13.41 -49.62)"  >
<path style="stroke: none; stroke-width: 1; stroke-dasharray: none; stroke-linecap: butt; stroke-dashoffset: 0; stroke-linejoin: miter; stroke-miterlimit: 4; fill: rgb(255,167,0); fill-rule: nonzero; opacity: 1;" vector-effect="non-scaling-stroke"  transform=" translate(-215.41, -101.38)" d="M 233.754 73.0284 C 235.855 73.5131 237.148 75.6135 236.663 77.7138 C 235.128 83.9342 234.078 90.1545 233.35 96.1325 C 232.704 101.383 232.3 106.311 232.058 110.835 C 231.492 121.418 231.734 129.496 231.411 132.243 C 226.159 131.839 206.282 130.466 195.455 129.739 C 191.819 101.141 196.102 82.884 198.526 75.4519 C 199.253 73.1092 201.354 71.4127 203.778 71.0896 C 205.151 70.928 206.848 70.7665 208.545 70.6049 C 209.191 70.6049 209.757 70.5241 210.403 70.5241 C 214.443 70.4433 221.15 71.0088 225.674 71.5743 C 226.644 71.6551 227.614 71.8166 228.583 71.9782 C 230.522 72.3821 232.3 72.7053 233.754 73.0284 Z" stroke-linecap="round" />
</g>
		<g transform="matrix(1 0 0 1 15.79 -81.97)"  >
<path style="stroke: none; stroke-width: 1; stroke-dasharray: none; stroke-linecap: butt; stroke-dashoffset: 0; stroke-linejoin: miter; stroke-miterlimit: 4; fill: rgb(255,195,189); fill-rule: nonzero; opacity: 1;" vector-effect="non-scaling-stroke"  transform=" translate(-217.79, -69.03)" d="M 225.432 54.3673 C 224.139 59.2143 222.523 68.1813 225.755 71.655 C 217.433 77.2291 212.1 85.1459 210.565 83.4494 C 209.757 82.5608 209.434 72.1397 210.484 70.6048 C 216.059 69.7162 216.221 65.5962 215.494 61.7186 L 225.432 54.3673 Z" stroke-linecap="round" />
</g>
		<g transform="matrix(1 0 0 1 16.44 -71.63)"  >
<path style="stroke: none; stroke-width: 1; stroke-dasharray: none; stroke-linecap: butt; stroke-dashoffset: 0; stroke-linejoin: miter; stroke-miterlimit: 4; fill: rgb(0,122,255); fill-rule: nonzero; opacity: 1;" vector-effect="non-scaling-stroke"  transform=" translate(-218.44, -79.37)" d="M 225.109 69.6355 C 225.109 69.6355 211.534 75.6135 209.757 89.1044 C 213.474 84.742 221.796 80.0566 221.796 80.0566 L 218.16 79.0064 C 218.16 79.0064 221.392 77.7139 225.351 77.0676 C 224.947 75.2096 227.129 71.4935 227.129 71.4935 L 225.109 69.6355 Z" stroke-linecap="round" />
</g>
		<g transform="matrix(1 0 0 1 7.43 -71.79)"  >
<path style="stroke: none; stroke-width: 1; stroke-dasharray: none; stroke-linecap: butt; stroke-dashoffset: 0; stroke-linejoin: miter; stroke-miterlimit: 4; fill: rgb(0,122,255); fill-rule: nonzero; opacity: 1;" vector-effect="non-scaling-stroke"  transform=" translate(-209.43, -79.21)" d="M 212.827 69.3931 C 212.827 69.3931 214.605 77.0675 209.676 89.0235 C 208.949 84.4188 205.717 76.8252 205.717 76.8252 L 209.03 77.7138 C 209.03 77.7138 208.868 76.1789 206.202 74.0785 C 207.171 72.1397 210.322 69.8778 210.322 69.8778 L 212.827 69.3931 Z" stroke-linecap="round" />
</g>
		<g transform="matrix(1 0 0 1 16.47 -90.09)"  >
<path style="stroke: none; stroke-width: 1; stroke-dasharray: none; stroke-linecap: butt; stroke-dashoffset: 0; stroke-linejoin: miter; stroke-miterlimit: 4; fill: rgb(30,37,56); fill-rule: nonzero; opacity: 0.2;" vector-effect="non-scaling-stroke"  transform=" translate(-218.47, -60.91)" d="M 221.392 57.3563 L 215.493 61.7186 C 215.655 62.6073 215.736 63.5767 215.736 64.4653 C 217.837 64.3037 220.907 62.2033 221.23 60.0222 C 221.473 58.8912 221.473 57.841 221.392 57.3563 Z" stroke-linecap="round" />
</g>
		<g transform="matrix(1 0 0 1 5.51 -105.01)"  >
<path style="stroke: none; stroke-width: 1; stroke-dasharray: none; stroke-linecap: butt; stroke-dashoffset: 0; stroke-linejoin: miter; stroke-miterlimit: 4; fill: rgb(30,37,56); fill-rule: nonzero; opacity: 1;" vector-effect="non-scaling-stroke"  transform=" translate(-207.51, -45.99)" d="M 208.141 40.3109 C 204.828 40.4725 203.05 46.1274 206.363 50.8128 C 209.757 55.4175 212.585 40.0686 208.141 40.3109 Z" stroke-linecap="round" />
</g>
		<g transform="matrix(1 0 0 1 13.17 -101.23)"  >
<path style="stroke: none; stroke-width: 1; stroke-dasharray: none; stroke-linecap: butt; stroke-dashoffset: 0; stroke-linejoin: miter; stroke-miterlimit: 4; fill: rgb(255,195,189); fill-rule: nonzero; opacity: 1;" vector-effect="non-scaling-stroke"  transform=" translate(-215.17, -49.77)" d="M 224.381 45.2388 C 224.785 51.9439 225.351 55.8215 222.361 59.6183 C 217.917 65.354 209.433 63.2536 207.009 56.8717 C 204.909 51.0553 204.585 41.1189 210.726 37.726 C 216.867 34.4138 223.977 38.6146 224.381 45.2388 Z" stroke-linecap="round" />
</g>
		<g transform="matrix(1 0 0 1 15.55 -111.14)"  >
<path style="stroke: none; stroke-width: 1; stroke-dasharray: none; stroke-linecap: butt; stroke-dashoffset: 0; stroke-linejoin: miter; stroke-miterlimit: 4; fill: rgb(30,37,56); fill-rule: nonzero; opacity: 1;" vector-effect="non-scaling-stroke"  transform=" translate(-217.55, -39.86)" d="M 225.351 50.409 C 220.261 47.1776 218.483 42.8961 218.079 40.7957 C 216.14 41.2804 206.363 45.7235 203.373 40.7957 C 200.384 35.8679 204.181 32.9597 209.757 36.0295 C 207.252 31.6671 209.514 29.486 217.352 29.3244 C 225.109 29.1628 224.139 33.6867 224.139 33.6867 C 224.139 33.6867 230.037 31.1017 232.138 35.6255 C 234.481 40.7149 230.037 49.6011 225.351 50.409 Z" stroke-linecap="round" />
</g>
		<g transform="matrix(1 0 0 1 23.92 -118.89)"  >
<path style="stroke: none; stroke-width: 1; stroke-dasharray: none; stroke-linecap: butt; stroke-dashoffset: 0; stroke-linejoin: miter; stroke-miterlimit: 4; fill: rgb(30,37,56); fill-rule: nonzero; opacity: 1;" vector-effect="non-scaling-stroke"  transform=" translate(-225.92, -32.11)" d="M 222.766 32.3943 C 222.846 32.3943 225.755 33.1213 229.068 29.7284 C 228.502 32.5558 223.331 34.4946 223.331 34.4946 L 222.766 32.3943 Z" stroke-linecap="round" />
</g>
		<g transform="matrix(1 0 0 1 22.34 -103.68)"  >
<path style="stroke: none; stroke-width: 1; stroke-dasharray: none; stroke-linecap: butt; stroke-dashoffset: 0; stroke-linejoin: miter; stroke-miterlimit: 4; fill: rgb(30,37,56); fill-rule: nonzero; opacity: 1;" vector-effect="non-scaling-stroke"  transform=" translate(-224.34, -47.32)" d="M 226.644 42.1691 C 223.573 41.1189 219.776 45.7235 221.149 51.2976 C 222.523 56.7909 230.845 43.6232 226.644 42.1691 Z" stroke-linecap="round" />
</g>
		<g transform="matrix(1 0 0 1 23.37 -99.62)"  >
<path style="stroke: none; stroke-width: 1; stroke-dasharray: none; stroke-linecap: butt; stroke-dashoffset: 0; stroke-linejoin: miter; stroke-miterlimit: 4; fill: rgb(255,195,189); fill-rule: nonzero; opacity: 1;" vector-effect="non-scaling-stroke"  transform=" translate(-225.37, -51.38)" d="M 228.421 50.8129 C 228.098 52.5901 227.048 54.0442 225.836 54.9329 C 223.977 56.2254 222.361 54.7713 222.281 52.6709 C 222.2 50.8129 223.008 47.8239 225.189 47.42 C 227.209 46.9353 228.745 48.7933 228.421 50.8129 Z" stroke-linecap="round" />
</g>
		<g transform="matrix(1 0 0 1 0.42 50.56)"  >
<path style="stroke: none; stroke-width: 1; stroke-dasharray: none; stroke-linecap: butt; stroke-dashoffset: 0; stroke-linejoin: miter; stroke-miterlimit: 4; fill: rgb(0,122,255); fill-rule: nonzero; opacity: 1;" vector-effect="non-scaling-stroke"  transform=" translate(-202.42, -201.56)" d="M 205.636 205.675 C 207.252 185.964 219.13 131.435 219.13 131.435 L 195.536 129.819 C 195.536 129.819 186.406 183.944 185.759 204.463 C 185.032 225.79 193.597 273.291 193.597 273.291 L 204.909 271.999 C 204.909 271.999 204.02 225.467 205.636 205.675 Z" stroke-linecap="round" />
</g>
		<g transform="matrix(1 0 0 1 0.42 50.56)"  >
<path style="stroke: none; stroke-width: 1; stroke-dasharray: none; stroke-linecap: butt; stroke-dashoffset: 0; stroke-linejoin: miter; stroke-miterlimit: 4; fill: rgb(30,37,56); fill-rule: nonzero; opacity: 1;" vector-effect="non-scaling-stroke"  transform=" translate(-202.42, -201.56)" d="M 205.636 205.675 C 207.252 185.964 219.13 131.435 219.13 131.435 L 195.536 129.819 C 195.536 129.819 186.406 183.944 185.759 204.463 C 185.032 225.79 193.597 273.291 193.597 273.291 L 204.909 271.999 C 204.909 271.999 204.02 225.467 205.636 205.675 Z" stroke-linecap="round" />
</g>
		<g transform="matrix(1 0 0 1 8.16 20.5)"  >
<path style="stroke: none; stroke-width: 1; stroke-dasharray: none; stroke-linecap: butt; stroke-dashoffset: 0; stroke-linejoin: miter; stroke-miterlimit: 4; fill: rgb(30,37,56); fill-rule: nonzero; opacity: 0.2;" vector-effect="non-scaling-stroke"  transform=" translate(-210.16, -171.5)" d="M 210.241 149.854 C 205.474 155.912 205.393 177.32 207.252 193.154 C 209.029 181.763 211.777 167.303 214.201 155.185 L 210.241 149.854 Z" stroke-linecap="round" />
</g>
		<g transform="matrix(1 0 0 1 20.68 52.29)"  >
<path style="stroke: none; stroke-width: 1; stroke-dasharray: none; stroke-linecap: butt; stroke-dashoffset: 0; stroke-linejoin: miter; stroke-miterlimit: 4; fill: rgb(0,122,255); fill-rule: nonzero; opacity: 1;" vector-effect="non-scaling-stroke"  transform=" translate(-222.68, -203.29)" d="M 208.302 130.627 C 208.302 130.627 210.888 188.307 213.716 207.856 C 216.867 229.264 224.705 275.957 224.705 275.957 L 237.067 275.957 C 237.067 275.957 235.047 231.93 233.431 210.926 C 231.573 187.014 231.492 132.243 231.492 132.243 L 208.302 130.627 Z" stroke-linecap="round" />
</g>
		<g transform="matrix(1 0 0 1 20.68 52.29)"  >
<path style="stroke: none; stroke-width: 1; stroke-dasharray: none; stroke-linecap: butt; stroke-dashoffset: 0; stroke-linejoin: miter; stroke-miterlimit: 4; fill: rgb(44,53,77); fill-rule: nonzero; opacity: 1;" vector-effect="non-scaling-stroke"  transform=" translate(-222.68, -203.29)" d="M 208.302 130.627 C 208.302 130.627 210.888 188.307 213.716 207.856 C 216.867 229.264 224.705 275.957 224.705 275.957 L 237.067 275.957 C 237.067 275.957 235.047 231.93 233.431 210.926 C 231.573 187.014 231.492 132.243 231.492 132.243 L 208.302 130.627 Z" stroke-linecap="round" />
</g>
		<g transform="matrix(1 0 0 1 27.67 122.9)"  >
<path style="stroke: none; stroke-width: 1; stroke-dasharray: none; stroke-linecap: butt; stroke-dashoffset: 0; stroke-linejoin: miter; stroke-miterlimit: 4; fill: rgb(0,122,255); fill-rule: nonzero; opacity: 1;" vector-effect="non-scaling-stroke"  transform=" translate(-229.67, -273.9)" d="M 223.25 276.199 L 237.794 276.199 L 237.794 271.918 L 221.553 271.595 L 223.25 276.199 Z" stroke-linecap="round" />
</g>
		<g transform="matrix(1 0 0 1 -3.19 120.64)"  >
<path style="stroke: none; stroke-width: 1; stroke-dasharray: none; stroke-linecap: butt; stroke-dashoffset: 0; stroke-linejoin: miter; stroke-miterlimit: 4; fill: rgb(0,122,255); fill-rule: nonzero; opacity: 1;" vector-effect="non-scaling-stroke"  transform=" translate(-198.81, -271.64)" d="M 193.112 274.584 L 206.606 273.049 L 206.121 268.687 L 191.011 270.141 L 193.112 274.584 Z" stroke-linecap="round" />
</g>
		<g transform="matrix(1 0 0 1 11.92 -102.61)"  >
<path style="stroke: none; stroke-width: 1; stroke-dasharray: none; stroke-linecap: butt; stroke-dashoffset: 0; stroke-linejoin: miter; stroke-miterlimit: 4; fill: rgb(30,37,56); fill-rule: nonzero; opacity: 1;" vector-effect="non-scaling-stroke"  transform=" translate(-213.92, -48.39)" d="M 214.524 48.3085 C 214.605 48.874 214.362 49.3587 214.039 49.3587 C 213.716 49.4395 213.312 49.0356 213.312 48.4701 C 213.231 47.9046 213.473 47.4199 213.797 47.4199 C 214.12 47.4199 214.443 47.8238 214.524 48.3085 Z" stroke-linecap="round" />
</g>
		<g transform="matrix(1 0 0 1 5.86 -101.88)"  >
<path style="stroke: none; stroke-width: 1; stroke-dasharray: none; stroke-linecap: butt; stroke-dashoffset: 0; stroke-linejoin: miter; stroke-miterlimit: 4; fill: rgb(30,37,56); fill-rule: nonzero; opacity: 1;" vector-effect="non-scaling-stroke"  transform=" translate(-207.86, -49.12)" d="M 208.464 49.0356 C 208.545 49.6011 208.302 50.0858 207.979 50.0858 C 207.656 50.1666 207.252 49.7627 207.252 49.1972 C 207.171 48.6317 207.414 48.147 207.737 48.147 C 208.06 48.147 208.383 48.5509 208.464 49.0356 Z" stroke-linecap="round" />
</g>
		<g transform="matrix(1 0 0 1 7.72 -99.22)"  >
<path style="stroke: none; stroke-width: 1; stroke-dasharray: none; stroke-linecap: butt; stroke-dashoffset: 0; stroke-linejoin: miter; stroke-miterlimit: 4; fill: rgb(255,105,97); fill-rule: nonzero; opacity: 1;" vector-effect="non-scaling-stroke"  transform=" translate(-209.72, -51.78)" d="M 210.403 49.1165 C 210.403 49.1165 209.514 52.3478 208.383 54.0443 C 209.433 54.8521 211.049 54.2058 211.049 54.2058 L 210.403 49.1165 Z" stroke-linecap="round" />
</g>
		<g transform="matrix(1 0 0 1 12.85 -105.65)"  >
<path style="stroke: none; stroke-width: 1; stroke-dasharray: none; stroke-linecap: butt; stroke-dashoffset: 0; stroke-linejoin: miter; stroke-miterlimit: 4; fill: rgb(30,37,56); fill-rule: nonzero; opacity: 1;" vector-effect="non-scaling-stroke"  transform=" translate(-214.85, -45.35)" d="M 216.221 46.1274 C 216.14 46.1274 215.978 46.1274 215.898 46.0466 C 214.928 44.9965 213.716 45.2388 213.716 45.2388 C 213.554 45.2388 213.393 45.158 213.312 44.9965 C 213.312 44.8349 213.393 44.6733 213.554 44.5925 C 213.635 44.5925 215.09 44.3502 216.302 45.5619 C 216.463 45.7235 216.382 45.8851 216.302 46.0466 C 216.302 46.1274 216.221 46.1274 216.221 46.1274 Z" stroke-linecap="round" />
</g>
		<g transform="matrix(1 0 0 1 13.49 -96.15)"  >
<path style="stroke: none; stroke-width: 1; stroke-dasharray: none; stroke-linecap: butt; stroke-dashoffset: 0; stroke-linejoin: miter; stroke-miterlimit: 4; fill: rgb(30,37,56); fill-rule: nonzero; opacity: 1;" vector-effect="non-scaling-stroke"  transform=" translate(-215.49, -54.85)" d="M 213.877 56.3869 C 216.544 55.7406 217.352 53.6403 217.352 53.5595 C 217.352 53.4787 217.352 53.3979 217.271 53.3171 C 217.19 53.3171 217.109 53.3171 217.029 53.3979 C 217.029 53.3979 216.301 55.4175 213.797 56.0638 C 213.716 56.0638 213.635 56.1446 213.635 56.3061 C 213.716 56.3061 213.797 56.3869 213.877 56.3869 Z" stroke-linecap="round" />
</g>
		<g transform="matrix(1 0 0 1 4.48 -104.96)"  >
<path style="stroke: none; stroke-width: 1; stroke-dasharray: none; stroke-linecap: butt; stroke-dashoffset: 0; stroke-linejoin: miter; stroke-miterlimit: 4; fill: rgb(30,37,56); fill-rule: nonzero; opacity: 1;" vector-effect="non-scaling-stroke"  transform=" translate(-206.48, -46.04)" d="M 205.555 47.2584 C 205.474 47.2584 205.393 47.2584 205.393 47.2584 C 205.232 47.1776 205.151 47.016 205.232 46.8544 C 205.797 45.158 207.252 44.8348 207.333 44.8348 C 207.494 44.7541 207.656 44.9156 207.737 45.0772 C 207.818 45.2388 207.656 45.4003 207.494 45.4811 C 207.414 45.4811 206.363 45.8042 205.878 47.0968 C 205.717 47.1776 205.636 47.2584 205.555 47.2584 Z" stroke-linecap="round" />
</g>
		<g transform="matrix(1 0 0 1 23.96 133.64)"  >
<path style="stroke: none; stroke-width: 1; stroke-dasharray: none; stroke-linecap: butt; stroke-dashoffset: 0; stroke-linejoin: miter; stroke-miterlimit: 4; fill: rgb(0,122,255); fill-rule: nonzero; opacity: 1;" vector-effect="non-scaling-stroke"  transform=" translate(-225.96, -284.64)" d="M 225.836 285.49 C 225.351 285.49 224.866 285.409 224.543 285.166 C 224.301 284.924 224.22 284.682 224.22 284.359 C 224.22 284.116 224.382 283.955 224.462 283.874 C 225.19 283.47 227.371 284.843 227.614 285.005 C 227.694 285.005 227.694 285.086 227.694 285.166 C 227.694 285.247 227.614 285.247 227.614 285.328 C 227.129 285.328 226.482 285.49 225.836 285.49 Z M 224.866 284.035 C 224.786 284.035 224.705 284.035 224.624 284.035 C 224.543 284.035 224.543 284.116 224.543 284.197 C 224.543 284.439 224.624 284.601 224.786 284.762 C 225.19 285.086 225.998 285.086 227.21 284.924 C 226.402 284.601 225.351 284.035 224.866 284.035 Z" stroke-linecap="round" />
</g>
		<g transform="matrix(1 0 0 1 24.64 132.79)"  >
<path style="stroke: none; stroke-width: 1; stroke-dasharray: none; stroke-linecap: butt; stroke-dashoffset: 0; stroke-linejoin: miter; stroke-miterlimit: 4; fill: rgb(0,122,255); fill-rule: nonzero; opacity: 1;" vector-effect="non-scaling-stroke"  transform=" translate(-226.64, -283.79)" d="M 227.533 285.247 C 226.725 284.843 225.432 283.389 225.594 282.662 C 225.594 282.5 225.755 282.258 226.078 282.258 C 226.321 282.258 226.563 282.258 226.725 282.5 C 227.533 283.147 227.694 285.086 227.694 285.166 C 227.694 285.247 227.694 285.247 227.614 285.328 C 227.614 285.247 227.614 285.247 227.533 285.247 Z M 226.24 282.5 C 226.159 282.5 226.159 282.5 226.24 282.5 C 225.998 282.5 225.917 282.662 225.917 282.662 C 225.836 283.066 226.725 284.197 227.371 284.762 C 227.29 284.197 227.048 283.066 226.563 282.662 C 226.482 282.581 226.321 282.5 226.24 282.5 Z" stroke-linecap="round" />
</g>
		<g transform="matrix(1 0 0 1 -6.33 132.88)"  >
<path style="stroke: none; stroke-width: 1; stroke-dasharray: none; stroke-linecap: butt; stroke-dashoffset: 0; stroke-linejoin: miter; stroke-miterlimit: 4; fill: rgb(0,122,255); fill-rule: nonzero; opacity: 1;" vector-effect="non-scaling-stroke"  transform=" translate(-195.67, -283.88)" d="M 197.717 284.197 C 196.667 284.52 194.728 285.005 193.92 284.439 C 193.677 284.278 193.516 284.035 193.516 283.712 C 193.516 283.551 193.597 283.389 193.758 283.227 C 194.485 282.662 197.394 283.712 197.717 283.874 C 197.798 283.874 197.798 283.955 197.798 284.035 C 197.879 284.116 197.798 284.197 197.717 284.197 Z M 194.001 283.551 C 193.92 283.631 193.839 283.631 193.92 283.793 C 193.92 284.035 194.001 284.197 194.162 284.278 C 194.647 284.601 195.697 284.52 197.152 284.116 C 196.021 283.631 194.485 283.227 194.001 283.551 Z" stroke-linecap="round" />
</g>
		<g transform="matrix(1 0 0 1 -5.61 131.77)"  >
<path style="stroke: none; stroke-width: 1; stroke-dasharray: none; stroke-linecap: butt; stroke-dashoffset: 0; stroke-linejoin: miter; stroke-miterlimit: 4; fill: rgb(0,122,255); fill-rule: nonzero; opacity: 1;" vector-effect="non-scaling-stroke"  transform=" translate(-196.39, -282.77)" d="M 197.717 284.197 C 197.717 284.197 197.637 284.197 197.556 284.197 C 196.667 283.955 194.97 282.662 194.97 281.854 C 194.97 281.693 195.051 281.45 195.536 281.369 C 195.859 281.289 196.182 281.369 196.425 281.531 C 197.394 282.097 197.717 283.955 197.717 283.955 C 197.879 284.116 197.798 284.116 197.717 284.197 C 197.798 284.197 197.798 284.197 197.717 284.197 Z M 195.455 281.773 C 195.374 281.854 195.374 281.935 195.374 281.935 C 195.374 282.42 196.586 283.389 197.475 283.793 C 197.313 283.308 196.99 282.258 196.344 281.854 C 196.101 281.693 195.94 281.693 195.697 281.693 C 195.617 281.693 195.536 281.773 195.455 281.773 Z" stroke-linecap="round" />
</g>
		<g transform="matrix(1 0 0 1 18.87 -48.71)"  >
<path style="stroke: none; stroke-width: 1; stroke-dasharray: none; stroke-linecap: butt; stroke-dashoffset: 0; stroke-linejoin: miter; stroke-miterlimit: 4; fill: rgb(255,195,189); fill-rule: nonzero; opacity: 1;" vector-effect="non-scaling-stroke"  transform=" translate(-220.87, -102.29)" d="M 239.491 82.8032 C 239.33 85.4691 239.006 87.8926 238.683 90.3969 C 238.36 92.9012 237.956 95.4054 237.471 97.9097 C 236.502 102.918 235.29 107.927 233.35 112.935 L 232.542 114.794 L 232.3 115.278 L 232.219 115.359 L 232.138 115.521 L 231.896 116.005 C 231.573 116.571 231.169 117.136 230.765 117.54 C 229.957 118.429 229.149 119.075 228.341 119.56 C 227.533 120.044 226.806 120.368 225.998 120.691 C 223.008 121.822 220.342 122.145 217.675 122.387 C 212.423 122.791 207.333 122.549 202.242 121.822 L 202.404 116.732 L 205.959 116.328 C 207.171 116.167 208.302 116.005 209.514 115.844 C 211.858 115.521 214.201 115.117 216.463 114.632 C 218.645 114.147 220.826 113.501 222.442 112.693 C 223.17 112.289 223.735 111.805 223.735 111.724 C 223.735 111.643 223.493 112.128 223.816 111.32 L 224.382 109.785 C 225.674 105.503 226.644 100.818 227.371 96.1325 C 227.775 93.7898 228.098 91.447 228.422 89.0235 C 228.745 86.6808 228.987 84.2573 229.23 81.9954 L 239.491 82.8032 Z" stroke-linecap="round" />
</g>
		<g transform="matrix(1 0 0 1 30.39 -63.97)"  >
<path style="stroke: none; stroke-width: 1; stroke-dasharray: none; stroke-linecap: butt; stroke-dashoffset: 0; stroke-linejoin: miter; stroke-miterlimit: 4; fill: rgb(0,122,255); fill-rule: nonzero; opacity: 1;" vector-effect="non-scaling-stroke"  transform=" translate(-232.39, -87.03)" d="M 240.057 77.8754 C 243.37 83.3687 240.542 100.818 240.542 100.818 L 223.25 97.5866 C 223.25 97.5866 222.281 87.6502 225.594 79.9757 C 229.23 71.655 236.098 71.1703 240.057 77.8754 Z" stroke-linecap="round" />
</g>
		<g transform="matrix(1 0 0 1 -26.42 -39.92)"  >
<path style="stroke: none; stroke-width: 1; stroke-dasharray: none; stroke-linecap: butt; stroke-dashoffset: 0; stroke-linejoin: miter; stroke-miterlimit: 4; fill: rgb(30,37,56); fill-rule: nonzero; opacity: 1;" vector-effect="non-scaling-stroke"  transform=" translate(-175.58, -111.08)" d="M 197.718 132.404 L 188.587 89.7506 C 187.779 86.1153 184.224 83.1263 180.588 83.1263 L 152.066 83.1263 L 145.44 83.1263 C 149.076 83.1263 152.712 86.1153 153.439 89.7506 L 162.57 132.404 C 163.378 136.04 166.933 139.029 170.569 139.029 L 199.091 139.029 L 205.717 139.029 C 202.081 139.029 198.526 136.12 197.718 132.404 Z" stroke-linecap="round" />
</g>
		<g transform="matrix(1 0 0 1 -26.42 -39.92)"  >
<path style="stroke: none; stroke-width: 1; stroke-dasharray: none; stroke-linecap: butt; stroke-dashoffset: 0; stroke-linejoin: miter; stroke-miterlimit: 4; fill: rgb(126,203,118); fill-rule: nonzero; opacity: 1;" vector-effect="non-scaling-stroke"  transform=" translate(-175.58, -111.08)" d="M 197.718 132.404 L 188.587 89.7506 C 187.779 86.1153 184.224 83.1263 180.588 83.1263 L 152.066 83.1263 L 145.44 83.1263 C 149.076 83.1263 152.712 86.1153 153.439 89.7506 L 162.57 132.404 C 163.378 136.04 166.933 139.029 170.569 139.029 L 199.091 139.029 L 205.717 139.029 C 202.081 139.029 198.526 136.12 197.718 132.404 Z" stroke-linecap="round" />
</g>
		<g transform="matrix(1 0 0 1 -70.94 -10.5)"  >
<path style="stroke: none; stroke-width: 1; stroke-dasharray: none; stroke-linecap: butt; stroke-dashoffset: 0; stroke-linejoin: miter; stroke-miterlimit: 4; fill: rgb(96,177,88); fill-rule: nonzero; opacity: 1;" vector-effect="non-scaling-stroke"  transform=" translate(-131.06, -140.5)" d="M 131.119 135.479 L 130.2 145.454 L 131.005 145.528 L 131.924 135.553 L 131.119 135.479 Z" stroke-linecap="round" />
</g>
		<g transform="matrix(1 0 0 1 -71.92 0.5)"  >
<path style="stroke: none; stroke-width: 1; stroke-dasharray: none; stroke-linecap: butt; stroke-dashoffset: 0; stroke-linejoin: miter; stroke-miterlimit: 4; fill: rgb(96,177,88); fill-rule: nonzero; opacity: 1;" vector-effect="non-scaling-stroke"  transform=" translate(-130.08, -151.5)" d="M 129.869 149.371 L 129.484 153.554 L 130.288 153.628 L 130.674 149.445 L 129.869 149.371 Z" stroke-linecap="round" />
</g>
		<g transform="matrix(1 0 0 1 -47.2 -11.61)"  >
<path style="stroke: none; stroke-width: 1; stroke-dasharray: none; stroke-linecap: butt; stroke-dashoffset: 0; stroke-linejoin: miter; stroke-miterlimit: 4; fill: rgb(96,177,88); fill-rule: nonzero; opacity: 1;" vector-effect="non-scaling-stroke"  transform=" translate(-154.8, -139.39)" d="M 145.359 83.2072 L 173.882 83.2072 L 180.507 83.2072 C 176.871 83.2072 173.639 86.1961 173.316 89.8314 L 164.186 188.953 C 163.862 192.588 160.63 195.577 156.994 195.577 L 135.098 195.577 C 131.462 195.577 128.795 192.588 129.118 188.953 L 138.168 89.8314 C 138.491 86.1154 141.723 83.2072 145.359 83.2072 Z" stroke-linecap="round" />
</g>
		<g transform="matrix(1 0 0 1 -65.58 41.18)"  >
<path style="stroke: none; stroke-width: 1; stroke-dasharray: none; stroke-linecap: butt; stroke-dashoffset: 0; stroke-linejoin: miter; stroke-miterlimit: 4; fill: rgb(30,37,56); fill-rule: nonzero; opacity: 1;" vector-effect="non-scaling-stroke"  transform=" translate(-136.42, -192.18)" d="M 151.015 188.872 C 150.692 192.507 153.358 195.496 156.994 195.496 L 150.369 195.496 L 121.846 195.496 C 118.21 195.496 115.544 192.507 115.867 188.872 L 151.015 188.872 Z" stroke-linecap="round" />
</g>
		<g transform="matrix(1 0 0 1 -65.58 41.18)"  >
<path style="stroke: none; stroke-width: 1; stroke-dasharray: none; stroke-linecap: butt; stroke-dashoffset: 0; stroke-linejoin: miter; stroke-miterlimit: 4; fill: rgb(126,203,118); fill-rule: nonzero; opacity: 1;" vector-effect="non-scaling-stroke"  transform=" translate(-136.42, -192.18)" d="M 151.015 188.872 C 150.692 192.507 153.358 195.496 156.994 195.496 L 150.369 195.496 L 121.846 195.496 C 118.21 195.496 115.544 192.507 115.867 188.872 L 151.015 188.872 Z" stroke-linecap="round" />
</g>
		<g transform="matrix(1 0 0 1 -46.5 -58.18)"  >
<path style="stroke: none; stroke-width: 1; stroke-dasharray: none; stroke-linecap: butt; stroke-dashoffset: 0; stroke-linejoin: miter; stroke-miterlimit: 4; fill: rgb(255,255,255); fill-rule: nonzero; opacity: 0.25;" vector-effect="non-scaling-stroke"  transform=" translate(-155.5, -92.82)" d="M 167.256 94.2745 L 143.501 94.2745 C 142.693 94.2745 142.127 93.6283 142.208 92.8204 C 142.289 92.0126 143.016 91.3663 143.743 91.3663 L 167.498 91.3663 C 168.306 91.3663 168.872 92.0126 168.791 92.8204 C 168.71 93.6283 167.983 94.2745 167.256 94.2745 Z" stroke-linecap="round" />
</g>
		<g transform="matrix(1 0 0 1 -47.23 -50.42)"  >
<path style="stroke: none; stroke-width: 1; stroke-dasharray: none; stroke-linecap: butt; stroke-dashoffset: 0; stroke-linejoin: miter; stroke-miterlimit: 4; fill: rgb(255,255,255); fill-rule: nonzero; opacity: 0.25;" vector-effect="non-scaling-stroke"  transform=" translate(-154.77, -100.58)" d="M 166.529 102.03 L 142.773 102.03 C 141.965 102.03 141.4 101.384 141.481 100.576 C 141.561 99.7679 142.289 99.1216 143.016 99.1216 L 166.771 99.1216 C 167.579 99.1216 168.145 99.7679 168.064 100.576 C 167.983 101.384 167.337 102.03 166.529 102.03 Z" stroke-linecap="round" />
</g>
		<g transform="matrix(1 0 0 1 -50.86 -42.59)"  >
<path style="stroke: none; stroke-width: 1; stroke-dasharray: none; stroke-linecap: butt; stroke-dashoffset: 0; stroke-linejoin: miter; stroke-miterlimit: 4; fill: rgb(255,255,255); fill-rule: nonzero; opacity: 0.25;" vector-effect="non-scaling-stroke"  transform=" translate(-151.14, -108.41)" d="M 159.984 109.866 L 142.046 109.866 C 141.238 109.866 140.673 109.22 140.754 108.412 C 140.834 107.604 141.562 106.958 142.289 106.958 L 160.226 106.958 C 161.034 106.958 161.6 107.604 161.519 108.412 C 161.438 109.22 160.792 109.866 159.984 109.866 Z" stroke-linecap="round" />
</g>
		<g transform="matrix(1 0 0 1 -57.53 -34.83)"  >
<path style="stroke: none; stroke-width: 1; stroke-dasharray: none; stroke-linecap: butt; stroke-dashoffset: 0; stroke-linejoin: miter; stroke-miterlimit: 4; fill: rgb(255,255,255); fill-rule: nonzero; opacity: 0.25;" vector-effect="non-scaling-stroke"  transform=" translate(-144.47, -116.17)" d="M 147.379 117.621 L 141.319 117.621 C 140.511 117.621 139.945 116.975 140.026 116.167 C 140.107 115.359 140.834 114.713 141.561 114.713 L 147.621 114.713 C 148.429 114.713 148.995 115.359 148.914 116.167 C 148.914 116.975 148.187 117.621 147.379 117.621 Z" stroke-linecap="round" />
</g>
		<g transform="matrix(1 0 0 1 -49.41 -27.08)"  >
<path style="stroke: none; stroke-width: 1; stroke-dasharray: none; stroke-linecap: butt; stroke-dashoffset: 0; stroke-linejoin: miter; stroke-miterlimit: 4; fill: rgb(255,255,255); fill-rule: nonzero; opacity: 0.25;" vector-effect="non-scaling-stroke"  transform=" translate(-152.59, -123.92)" d="M 164.428 125.376 L 140.592 125.376 C 139.784 125.376 139.218 124.73 139.299 123.922 C 139.38 123.114 140.107 122.468 140.834 122.468 L 164.589 122.468 C 165.397 122.468 165.963 123.114 165.882 123.922 C 165.882 124.73 165.155 125.376 164.428 125.376 Z" stroke-linecap="round" />
</g>
		<g transform="matrix(1 0 0 1 -54.74 -19.24)"  >
<path style="stroke: none; stroke-width: 1; stroke-dasharray: none; stroke-linecap: butt; stroke-dashoffset: 0; stroke-linejoin: miter; stroke-miterlimit: 4; fill: rgb(255,255,255); fill-rule: nonzero; opacity: 0.25;" vector-effect="non-scaling-stroke"  transform=" translate(-147.26, -131.76)" d="M 154.328 133.212 L 139.945 133.212 C 139.137 133.212 138.572 132.566 138.653 131.758 C 138.733 130.95 139.461 130.304 140.188 130.304 L 154.57 130.304 C 155.378 130.304 155.944 130.95 155.863 131.758 C 155.782 132.566 155.136 133.212 154.328 133.212 Z" stroke-linecap="round" />
</g>
		<g transform="matrix(1 0 0 1 -50.78 -11.49)"  >
<path style="stroke: none; stroke-width: 1; stroke-dasharray: none; stroke-linecap: butt; stroke-dashoffset: 0; stroke-linejoin: miter; stroke-miterlimit: 4; fill: rgb(255,255,255); fill-rule: nonzero; opacity: 0.25;" vector-effect="non-scaling-stroke"  transform=" translate(-151.22, -139.51)" d="M 162.973 140.968 L 139.218 140.968 C 138.41 140.968 137.845 140.321 137.925 139.513 C 138.006 138.706 138.733 138.059 139.461 138.059 L 163.216 138.059 C 164.024 138.059 164.589 138.706 164.509 139.513 C 164.509 140.321 163.781 140.968 162.973 140.968 Z" stroke-linecap="round" />
</g>
		<g transform="matrix(1 0 0 1 -54.42 -3.73)"  >
<path style="stroke: none; stroke-width: 1; stroke-dasharray: none; stroke-linecap: butt; stroke-dashoffset: 0; stroke-linejoin: miter; stroke-miterlimit: 4; fill: rgb(255,255,255); fill-rule: nonzero; opacity: 0.25;" vector-effect="non-scaling-stroke"  transform=" translate(-147.58, -147.27)" d="M 156.429 148.723 L 138.491 148.723 C 137.683 148.723 137.117 148.077 137.198 147.269 C 137.279 146.461 138.006 145.815 138.733 145.815 L 156.671 145.815 C 157.479 145.815 158.044 146.461 157.964 147.269 C 157.964 148.077 157.237 148.723 156.429 148.723 Z" stroke-linecap="round" />
</g>
		<g transform="matrix(1 0 0 1 -61 4.02)"  >
<path style="stroke: none; stroke-width: 1; stroke-dasharray: none; stroke-linecap: butt; stroke-dashoffset: 0; stroke-linejoin: miter; stroke-miterlimit: 4; fill: rgb(255,255,255); fill-rule: nonzero; opacity: 0.25;" vector-effect="non-scaling-stroke"  transform=" translate(-141, -155.02)" d="M 143.905 156.478 L 137.845 156.478 C 137.037 156.478 136.471 155.832 136.552 155.024 C 136.633 154.216 137.36 153.57 138.087 153.57 L 144.147 153.57 C 144.955 153.57 145.521 154.216 145.44 155.024 C 145.359 155.832 144.632 156.478 143.905 156.478 Z" stroke-linecap="round" />
</g>
		<g transform="matrix(1 0 0 1 -52.88 11.86)"  >
<path style="stroke: none; stroke-width: 1; stroke-dasharray: none; stroke-linecap: butt; stroke-dashoffset: 0; stroke-linejoin: miter; stroke-miterlimit: 4; fill: rgb(255,255,255); fill-rule: nonzero; opacity: 0.25;" vector-effect="non-scaling-stroke"  transform=" translate(-149.12, -162.86)" d="M 160.873 164.314 L 137.117 164.314 C 136.309 164.314 135.744 163.668 135.825 162.86 C 135.905 162.052 136.633 161.406 137.36 161.406 L 161.115 161.406 C 161.923 161.406 162.489 162.052 162.408 162.86 C 162.327 163.668 161.681 164.314 160.873 164.314 Z" stroke-linecap="round" />
</g>
		<g transform="matrix(1 0 0 1 -58.3 19.61)"  >
<path style="stroke: none; stroke-width: 1; stroke-dasharray: none; stroke-linecap: butt; stroke-dashoffset: 0; stroke-linejoin: miter; stroke-miterlimit: 4; fill: rgb(255,255,255); fill-rule: nonzero; opacity: 0.25;" vector-effect="non-scaling-stroke"  transform=" translate(-143.7, -170.62)" d="M 150.773 172.069 L 136.39 172.069 C 135.582 172.069 135.017 171.423 135.098 170.615 C 135.178 169.807 135.906 169.161 136.633 169.161 L 151.015 169.161 C 151.823 169.161 152.389 169.807 152.308 170.615 C 152.308 171.423 151.581 172.069 150.773 172.069 Z" stroke-linecap="round" />
</g>
		<g transform="matrix(1 0 0 1 -54.34 27.37)"  >
<path style="stroke: none; stroke-width: 1; stroke-dasharray: none; stroke-linecap: butt; stroke-dashoffset: 0; stroke-linejoin: miter; stroke-miterlimit: 4; fill: rgb(255,255,255); fill-rule: nonzero; opacity: 0.25;" vector-effect="non-scaling-stroke"  transform=" translate(-147.66, -178.37)" d="M 159.418 179.824 L 135.663 179.824 C 134.855 179.824 134.289 179.178 134.37 178.37 C 134.451 177.563 135.178 176.916 135.905 176.916 L 159.661 176.916 C 160.469 176.916 161.034 177.563 160.953 178.37 C 160.953 179.178 160.226 179.824 159.418 179.824 Z" stroke-linecap="round" />
</g>
		<g transform="matrix(1 0 0 1 -1.21 -33.36)"  >
<path style="stroke: none; stroke-width: 1; stroke-dasharray: none; stroke-linecap: butt; stroke-dashoffset: 0; stroke-linejoin: miter; stroke-miterlimit: 4; fill: rgb(255,195,189); fill-rule: nonzero; opacity: 1;" vector-effect="non-scaling-stroke"  transform=" translate(-200.79, -117.64)" d="M 204.585 117.379 L 199.414 112.855 L 196.99 121.095 C 196.99 121.095 202.242 123.922 204.02 121.337 L 204.585 117.379 Z" stroke-linecap="round" />
</g>
		<g transform="matrix(1 0 0 1 -6.22 -34.19)"  >
<path style="stroke: none; stroke-width: 1; stroke-dasharray: none; stroke-linecap: butt; stroke-dashoffset: 0; stroke-linejoin: miter; stroke-miterlimit: 4; fill: rgb(255,195,189); fill-rule: nonzero; opacity: 1;" vector-effect="non-scaling-stroke"  transform=" translate(-195.78, -116.81)" d="M 193.839 112.532 L 192.142 119.479 L 196.99 121.095 L 199.414 112.855 L 193.839 112.532 Z" stroke-linecap="round" />
</g>
		<g transform="matrix(1 0 0 1 108.3 91.01)"  >
<path style="stroke: none; stroke-width: 1; stroke-dasharray: none; stroke-linecap: butt; stroke-dashoffset: 0; stroke-linejoin: miter; stroke-miterlimit: 4; fill: rgb(38,50,56); fill-rule: nonzero; opacity: 1;" vector-effect="non-scaling-stroke"  transform=" translate(-310.3, -242.01)" d="M 322.168 282.28 C 322.154 282.28 322.141 282.279 322.128 282.276 C 322.102 282.271 322.078 282.26 322.057 282.246 C 322.036 282.231 322.018 282.213 322.004 282.191 C 321.99 282.169 321.98 282.145 321.976 282.12 C 321.972 282.094 321.972 282.068 321.978 282.043 C 326.002 263.174 324.119 245.261 316.38 228.799 C 311.627 218.572 304.764 209.465 296.241 202.077 C 296.221 202.06 296.205 202.04 296.193 202.018 C 296.181 201.995 296.173 201.971 296.171 201.945 C 296.168 201.92 296.171 201.894 296.178 201.87 C 296.186 201.845 296.198 201.822 296.214 201.803 C 296.231 201.783 296.251 201.767 296.273 201.755 C 296.296 201.743 296.321 201.735 296.346 201.733 C 296.372 201.731 296.397 201.734 296.422 201.741 C 296.446 201.749 296.469 201.761 296.489 201.778 C 305.055 209.203 311.953 218.355 316.731 228.634 C 324.507 245.174 326.4 263.171 322.358 282.123 C 322.349 282.167 322.326 282.207 322.291 282.235 C 322.256 282.264 322.213 282.279 322.168 282.28 Z" stroke-linecap="round" />
</g>
		<g transform="matrix(1 0 0 1 125.16 94.96)"  >
<path style="stroke: none; stroke-width: 1; stroke-dasharray: none; stroke-linecap: butt; stroke-dashoffset: 0; stroke-linejoin: miter; stroke-miterlimit: 4; fill: rgb(38,50,56); fill-rule: nonzero; opacity: 1;" vector-effect="non-scaling-stroke"  transform=" translate(-327.16, -245.96)" d="M 329.424 246.932 C 328.135 249.722 326.163 252.142 323.691 253.97 C 323.271 250.916 323.699 247.806 324.928 244.979 C 326.157 242.152 328.14 239.717 330.661 237.941 C 331.011 240.994 330.586 244.086 329.424 246.932 Z" stroke-linecap="round" />
</g>
		<g transform="matrix(1 0 0 1 108 74.52)"  >
<path style="stroke: none; stroke-width: 1; stroke-dasharray: none; stroke-linecap: butt; stroke-dashoffset: 0; stroke-linejoin: miter; stroke-miterlimit: 4; fill: rgb(38,50,56); fill-rule: nonzero; opacity: 1;" vector-effect="non-scaling-stroke"  transform=" translate(-310, -225.52)" d="M 311.354 223.477 C 313.875 225.236 315.913 227.601 317.279 230.355 C 314.197 230.231 311.209 229.264 308.64 227.558 C 306.072 225.852 304.022 223.473 302.715 220.681 C 305.784 220.873 308.755 221.835 311.354 223.477 Z" stroke-linecap="round" />
</g>
		<g transform="matrix(1 0 0 1 103.85 53.65)"  >
<path style="stroke: none; stroke-width: 1; stroke-dasharray: none; stroke-linecap: butt; stroke-dashoffset: 0; stroke-linejoin: miter; stroke-miterlimit: 4; fill: rgb(0,122,255); fill-rule: nonzero; opacity: 1;" vector-effect="non-scaling-stroke"  transform=" translate(-305.85, -204.65)" d="M 308.293 204.258 C 308.711 207.302 308.354 210.403 307.256 213.274 C 305.256 210.928 303.94 208.077 303.452 205.034 C 302.964 201.99 303.323 198.871 304.489 196.017 C 306.429 198.401 307.738 201.235 308.293 204.258 Z" stroke-linecap="round" />
</g>
		<g transform="matrix(1 0 0 1 94.36 50.93)"  >
<path style="stroke: none; stroke-width: 1; stroke-dasharray: none; stroke-linecap: butt; stroke-dashoffset: 0; stroke-linejoin: miter; stroke-miterlimit: 4; fill: rgb(0,122,255); fill-rule: nonzero; opacity: 1;" vector-effect="non-scaling-stroke"  transform=" translate(-296.36, -201.93)" d="M 297.864 201.766 C 297.897 202.063 297.841 202.362 297.703 202.627 C 297.566 202.891 297.353 203.109 297.091 203.253 C 296.829 203.396 296.531 203.459 296.234 203.433 C 295.937 203.407 295.654 203.294 295.421 203.107 C 295.188 202.921 295.016 202.669 294.926 202.385 C 294.837 202.1 294.833 201.796 294.917 201.509 C 295 201.223 295.167 200.968 295.395 200.776 C 295.624 200.584 295.904 200.465 296.201 200.432 C 296.598 200.389 296.997 200.505 297.309 200.755 C 297.621 201.005 297.821 201.369 297.864 201.766 Z" stroke-linecap="round" />
</g>
		<g transform="matrix(1 0 0 1 126.18 90.94)"  >
<path style="stroke: none; stroke-width: 1; stroke-dasharray: none; stroke-linecap: butt; stroke-dashoffset: 0; stroke-linejoin: miter; stroke-miterlimit: 4; fill: rgb(38,50,56); fill-rule: nonzero; opacity: 1;" vector-effect="non-scaling-stroke"  transform=" translate(-328.18, -241.94)" d="M 326.723 278.426 C 326.685 278.426 326.648 278.414 326.616 278.393 C 326.584 278.372 326.559 278.341 326.545 278.306 C 320.017 262.781 318.712 247.11 322.665 231.728 C 325.075 222.178 329.479 213.246 335.588 205.518 C 335.622 205.481 335.668 205.459 335.718 205.455 C 335.767 205.452 335.816 205.468 335.855 205.499 C 335.893 205.531 335.918 205.576 335.924 205.626 C 335.93 205.675 335.917 205.725 335.887 205.765 C 329.814 213.449 325.436 222.33 323.04 231.825 C 319.108 247.123 320.406 262.712 326.9 278.157 C 326.91 278.181 326.915 278.206 326.915 278.231 C 326.915 278.257 326.911 278.282 326.901 278.306 C 326.891 278.329 326.877 278.351 326.859 278.369 C 326.841 278.387 326.82 278.401 326.796 278.411 C 326.773 278.421 326.748 278.426 326.723 278.426 Z" stroke-linecap="round" />
</g>
		<g transform="matrix(1 0 0 1 116.89 109.72)"  >
<path style="stroke: none; stroke-width: 1; stroke-dasharray: none; stroke-linecap: butt; stroke-dashoffset: 0; stroke-linejoin: miter; stroke-miterlimit: 4; fill: rgb(0,122,255); fill-rule: nonzero; opacity: 1;" vector-effect="non-scaling-stroke"  transform=" translate(-318.89, -260.72)" d="M 317.846 261.678 C 319.076 262.963 320.61 263.917 322.306 264.453 C 321.962 262.703 321.143 261.081 319.939 259.765 C 318.734 258.448 317.191 257.489 315.477 256.991 C 315.861 258.727 316.676 260.339 317.846 261.678 Z" stroke-linecap="round" />
</g>
		<g transform="matrix(1 0 0 1 122.81 82.45)"  >
<path style="stroke: none; stroke-width: 1; stroke-dasharray: none; stroke-linecap: butt; stroke-dashoffset: 0; stroke-linejoin: miter; stroke-miterlimit: 4; fill: rgb(0,122,255); fill-rule: nonzero; opacity: 1;" vector-effect="non-scaling-stroke"  transform=" translate(-324.81, -233.45)" d="M 323.49 232.55 C 322.402 234.223 321.755 236.144 321.606 238.134 C 323.43 237.308 324.991 235.996 326.12 234.342 C 327.248 232.689 327.9 230.757 328.004 228.758 C 326.204 229.623 324.652 230.927 323.49 232.55 Z" stroke-linecap="round" />
</g>
		<g transform="matrix(1 0 0 1 122.48 69.84)"  >
<path style="stroke: none; stroke-width: 1; stroke-dasharray: none; stroke-linecap: butt; stroke-dashoffset: 0; stroke-linejoin: miter; stroke-miterlimit: 4; fill: rgb(0,122,255); fill-rule: nonzero; opacity: 1;" vector-effect="non-scaling-stroke"  transform=" translate(-324.48, -220.84)" d="M 323.177 220.925 C 323.32 222.556 323.872 224.125 324.782 225.486 C 325.543 224.031 325.889 222.395 325.782 220.756 C 325.676 219.118 325.121 217.54 324.178 216.196 C 323.452 217.663 323.108 219.29 323.177 220.925 Z" stroke-linecap="round" />
</g>
		<g transform="matrix(1 0 0 1 131.61 61.18)"  >
<path style="stroke: none; stroke-width: 1; stroke-dasharray: none; stroke-linecap: butt; stroke-dashoffset: 0; stroke-linejoin: miter; stroke-miterlimit: 4; fill: rgb(0,122,255); fill-rule: nonzero; opacity: 1;" vector-effect="non-scaling-stroke"  transform=" translate(-333.61, -212.18)" d="M 332.91 211.078 C 331.544 211.981 330.428 213.213 329.664 214.661 C 331.307 214.637 332.911 214.161 334.301 213.287 C 335.691 212.412 336.814 211.172 337.547 209.702 C 335.91 209.764 334.315 210.237 332.91 211.078 Z" stroke-linecap="round" />
</g>
		<g transform="matrix(1 0 0 1 133.74 54.64)"  >
<path style="stroke: none; stroke-width: 1; stroke-dasharray: none; stroke-linecap: butt; stroke-dashoffset: 0; stroke-linejoin: miter; stroke-miterlimit: 4; fill: rgb(0,122,255); fill-rule: nonzero; opacity: 1;" vector-effect="non-scaling-stroke"  transform=" translate(-335.74, -205.64)" d="M 334.433 205.744 C 334.454 206.002 334.55 206.248 334.711 206.452 C 334.871 206.655 335.088 206.807 335.335 206.887 C 335.581 206.967 335.846 206.972 336.096 206.902 C 336.345 206.832 336.568 206.689 336.737 206.492 C 336.905 206.295 337.011 206.052 337.042 205.795 C 337.072 205.538 337.026 205.277 336.908 205.046 C 336.79 204.815 336.607 204.625 336.38 204.498 C 336.154 204.371 335.895 204.315 335.637 204.335 C 335.291 204.363 334.969 204.526 334.744 204.79 C 334.518 205.055 334.406 205.397 334.433 205.744 Z" stroke-linecap="round" />
</g>
		<g transform="matrix(1 0 0 1 137.2 137.8)"  >
<path style="stroke: none; stroke-width: 1; stroke-dasharray: none; stroke-linecap: butt; stroke-dashoffset: 0; stroke-linejoin: miter; stroke-miterlimit: 4; fill: rgb(0,122,255); fill-rule: nonzero; opacity: 1;" vector-effect="non-scaling-stroke"  transform=" translate(-339.2, -288.8)" d="M 339.181 291.051 L 338.453 290.781 C 338.94 289.421 339.18 287.985 339.162 286.541 L 339.938 286.541 C 339.956 288.077 339.7 289.605 339.181 291.051 Z" stroke-linecap="round" />
</g>
		<g transform="matrix(1 0 0 1 134.63 127.63)"  >
<path style="stroke: none; stroke-width: 1; stroke-dasharray: none; stroke-linecap: butt; stroke-dashoffset: 0; stroke-linejoin: miter; stroke-miterlimit: 4; fill: rgb(0,122,255); fill-rule: nonzero; opacity: 1;" vector-effect="non-scaling-stroke"  transform=" translate(-336.63, -278.63)" d="M 338.575 282.481 C 337.764 279.706 336.153 277.231 333.944 275.365 L 334.445 274.773 C 336.77 276.738 338.465 279.343 339.32 282.263 L 338.575 282.481 Z" stroke-linecap="round" />
</g>
		<g transform="matrix(1 0 0 1 122.52 131.37)"  >
<path style="stroke: none; stroke-width: 1; stroke-dasharray: none; stroke-linecap: butt; stroke-dashoffset: 0; stroke-linejoin: miter; stroke-miterlimit: 4; fill: rgb(0,122,255); fill-rule: nonzero; opacity: 1;" vector-effect="non-scaling-stroke"  transform=" translate(-324.52, -282.37)" d="M 330.016 275.108 L 331.589 268.662 L 317.452 268.662 L 319.025 275.108 C 316.868 276.141 315.047 277.762 313.772 279.785 C 312.497 281.807 311.82 284.149 311.819 286.54 C 311.819 293.552 317.505 296.08 324.521 296.08 C 331.537 296.08 337.223 293.549 337.223 286.54 C 337.221 284.149 336.544 281.807 335.269 279.785 C 333.994 277.762 332.173 276.141 330.016 275.108 Z" stroke-linecap="round" />
</g>
</g>
</g>
</svg>